<?xml version="1.0" encoding="utf-8"?>
<!-- Generator: Adobe Illustrator 18.1.1, SVG Export Plug-In . SVG Version: 6.00 Build 0)  -->
<svg version="1.1" xmlns="http://www.w3.org/2000/svg" xmlns:xlink="http://www.w3.org/1999/xlink" x="0px" y="0px"
	 viewBox="0 0 394.9 117" enable-background="new 0 0 394.9 117" xml:space="preserve">
<g id="Layer_1">
	<g>
		<path d="M21.9,39.4h9.5c6.2,0,10,2.5,10,7.8c0,5.7-4.2,8.1-10.3,8.1h-6.5v12.6h-2.7V39.4z M31.3,52.9c4.7,0,7.3-1.5,7.3-5.6
			c0-3.9-2.6-5.4-7.4-5.4h-6.6v11H31.3z"/>
		<path d="M45.5,47.6h2.7v4h0.1c1.6-2.5,4-4.4,8.1-4.4h0.5l-0.3,2.5c0,0-0.7,0-0.8,0c-3.3,0-5.9,1.9-7.5,5.1v13.2h-2.7V47.6z"/>
		<path d="M58.4,57.8c0-7.2,4.6-10.5,8.9-10.5c4.7,0,8.3,3.6,8.3,10.6v0.5H61c0,5,2.9,7.8,6.4,7.8c3,0,4.8-1.3,6.3-3.7l1.7,1.3
			c-1.8,2.9-4.3,4.6-8.1,4.6C62.5,68.4,58.4,64.7,58.4,57.8z M73,56.2c-0.3-3.9-2.1-6.7-5.7-6.7c-2.9,0-5.7,2.1-6.2,6.7H73z"/>
		<path d="M80.1,47.6h2.7v3.2c2-2,4.4-3.6,7.4-3.6c3.4,0,5,1.5,5.6,3.7c2.1-2,4.7-3.7,7.7-3.7c4.2,0,5.9,2.4,5.9,6v14.7h-2.7V53.8
			c0-2.9-1-4.2-3.8-4.2c-2.5,0-4.5,1.3-6.8,3.5v14.9h-2.7V53.8c0-2.9-1-4.2-3.9-4.2c-2.4,0-4.5,1.3-6.8,3.5v14.9h-2.7V47.6z"/>
		<path d="M114.9,40.1h2.8v2.9h-2.8V40.1z M114.9,47.6h2.7v20.3h-2.7V47.6z"/>
		<path d="M122.2,57.8c0-7.2,4.6-10.5,8.9-10.5c4.7,0,8.3,3.6,8.3,10.6v0.5h-14.5c0,5,2.9,7.8,6.4,7.8c3,0,4.8-1.3,6.3-3.7l1.7,1.3
			c-1.8,2.9-4.3,4.6-8.1,4.6C126.3,68.4,122.2,64.7,122.2,57.8z M136.8,56.2c-0.3-3.9-2.1-6.7-5.7-6.7c-2.9,0-5.7,2.1-6.2,6.7H136.8
			z"/>
		<path d="M143.9,47.6h2.7v4h0.1c1.6-2.5,4-4.4,8.1-4.4h0.5l-0.3,2.5c0,0-0.7,0-0.8,0c-3.3,0-5.9,1.9-7.5,5.1v13.2h-2.7V47.6z"/>
	</g>
	<g>
		<rect x="175.3" y="27.7" width="0.9" height="59.4"/>
	</g>
	<g>
		<polygon points="350.7,36.7 346.6,46.6 347.5,46.6 355.3,36.7 		"/>
		<path d="M205.9,60.7c-2.6,0-4.9-0.7-6.6-1.5l-1.7,1.5h-0.8l-0.5-9.7l0.9-0.1c2.8,6.3,6,8.3,9,8.3c3.1,0,5-2.1,5-4.8
			c0-2.6-1-3.9-5.1-5.6c-1.4-0.6-3-1.1-4.4-1.8c-3.1-1.5-4.7-3.9-4.7-7.1c0-5.2,4.5-8.3,8.9-8.3c2.2,0,3.7,0.6,5.1,1.4l1.7-1.5h0.7
			l0.7,8.6l-0.9,0.1c-2.4-4.8-5-7.2-7.8-7.2c-2.5,0-4.1,1.7-4.1,4.2c0,2.1,0.9,3.6,4,5c1.5,0.7,3.3,1.3,4.9,2.1
			c3.5,1.7,5.2,3.9,5.2,7.2C215.5,57.3,210.6,60.7,205.9,60.7"/>
		<path d="M229,40.9c-3.1,0-4.9,3.4-4.9,9.4c0,5.9,2,9.3,5.1,9.3c3.2,0,4.9-3.4,4.9-9.4C234.1,44.3,232.2,40.9,229,40.9 M228.8,60.8
			c-6.6,0-9.9-4.8-9.9-10.6c0-5.4,3.8-10.5,10.5-10.5c6.6,0,9.8,4.7,9.8,10.5C239.2,55.6,235.6,60.8,228.8,60.8"/>
		<path d="M248.7,60.6c-3.4,0-4.5-1.7-4.5-4.8V42.7h-3.2v-0.6l4-3.2l3.2-4.1h0.7v5.7h6.6v2.3h-6.6V54c0,1.7,0.3,2.8,1.1,3.4
			c0.7,0.5,1.7,0.7,3.2,0.7c0.7,0,1.6,0,2.4-0.1l0,0.6C253.9,59.7,251.1,60.6,248.7,60.6"/>
		<path d="M269.1,43c-1.7,0-2.9,0.3-4.5,1.1v14.4l2.4,0.9v0.6h-9.9v-0.6l2.8-0.9V32.2l-3-2v-0.4l7.5-2.1l0.2,0.1v15.3l0.2,0.1
			c2.6-2.4,4.9-3.5,7.3-3.5c3.9,0,5.6,3,5.6,6.1v12.8l2.8,0.9v0.6h-9.9v-0.6l2.4-0.9v-11C272.9,44.7,271.8,43,269.1,43"/>
		<path d="M295.5,47.2c-0.2-4.1-1.4-6.3-3.9-6.3c-2.5,0-4.5,2.7-4.7,6.7L295.5,47.2L295.5,47.2z M286.8,48.7c0,5.5,1.6,9.2,6.5,9.2
			c2.2,0,4-0.4,6.6-1.4l0.3,0.5c-2.7,2.3-5.6,3.8-8.4,3.8c-6,0-9.9-4.1-9.9-10.2c0-6.2,4.7-10.9,10-10.9c5.8,0,8.6,3.9,8.5,9H286.8
			L286.8,48.7z"/>
		<path d="M312.7,42.7c-1.3,0-2.4,0.3-3.4,0.7v13.8c1.4,1.4,3.1,2,4.8,2c2.6,0,4.7-2.3,4.7-8.5C318.8,45.4,316.4,42.7,312.7,42.7
			 M312,60.8c-2.3,0-5.3-0.5-7.4-1.1V32.2l-3.1-2v-0.4l7.5-2.1l0.2,0.1v14.6l0.2,0.1c1.5-1.5,3.6-2.9,6.3-2.9c4.1,0,7.9,3.8,7.9,10
			C323.7,56,319,60.8,312,60.8"/>
		<path d="M335.7,61.4c-2.2,5.4-4.2,7.7-6.9,7.7c-2.3,0-3.4-1.4-3.4-2.8c0-1.4,1.2-2.5,2.6-2.5c1.5,0,2.4,0.8,3.4,2.1
			c0.8-0.9,1.8-2.5,2.4-3.7l0.7-1.7L326.8,42l-2.7-1v-0.6h10.6v0.6l-2.8,1l4.7,12.8h0.2l4.3-12.5l-2.5-1.4v-0.6h7.5v0.6l-2.8,1.4
			L335.7,61.4L335.7,61.4z"/>
		<path d="M360.5,60.8c-2.4,0-4.5-0.4-6.5-1.2l0-5.8l0.9-0.1c2.4,4.1,4.1,5.7,6.5,5.7c2.1,0,3.3-1.3,3.3-3.3c0-2.3-2.3-3.1-4.8-4.1
			c-2.8-1.2-5.7-2.5-5.7-6.1c0-3.4,3.1-6.2,7.5-6.2c1.7,0,4.1,0.3,5.3,0.8l0.1,5.2l-0.8,0.2c-2.1-3.5-3.5-4.9-5.5-4.9
			c-1.8,0-3,1.2-3,2.8c0,2.3,2.4,3.2,4.8,4.2c2.8,1.1,5.7,2.4,5.7,6.2C368.4,58.2,364.8,60.8,360.5,60.8"/>
		<path d="M196.8,87.1h1V77h-1V87.1L196.8,87.1z M201.3,87.1h0.9v-8.6h0l5.8,8.6h0.9V77H208v8.4h0l-5.6-8.4h-1V87.1L201.3,87.1z
			 M214.4,87.1h1v-9.3h3.3V77h-7.5v0.9h3.3V87.1L214.4,87.1z M220.8,87.1h6.4v-0.9h-5.4v-4h3.8v-0.9h-3.8v-3.4h5.1V77h-6.1V87.1
			L220.8,87.1z M229.8,87.1h1v-4.6h2.5l2.5,4.6h1.1l-2.6-4.7c1.5-0.3,2.4-1.1,2.4-2.7c0-1.8-1.3-2.7-3.5-2.7h-3.4V87.1L229.8,87.1z
			 M230.8,81.7v-3.8h2.4c1.7,0,2.6,0.5,2.6,1.9c0,1.5-0.9,1.9-2.6,1.9H230.8L230.8,81.7z M240.1,87.1h0.9v-8.6h0l5.8,8.6h0.9V77
			h-0.9v8.4h0l-5.6-8.4h-1V87.1L240.1,87.1z M250.4,87.1h0.9l1.1-3.1h4.1l1.1,3.1h1L255,76.9H254L250.4,87.1L250.4,87.1z
			 M252.7,83.1l1.7-5.1h0l1.7,5.1H252.7L252.7,83.1z M262.5,87.1h1v-9.3h3.3V77h-7.5v0.9h3.3V87.1L262.5,87.1z M269.1,87.1h1V77h-1
			V87.1L269.1,87.1z M277.3,87.3c2.5,0,4.3-2.1,4.3-5.3c0-3.2-1.8-5.3-4.3-5.3c-2.5,0-4.3,2.1-4.3,5.3
			C273,85.2,274.8,87.3,277.3,87.3L277.3,87.3z M277.3,86.4c-1.9,0-3.3-1.6-3.3-4.4c0-2.8,1.4-4.4,3.3-4.4s3.3,1.6,3.3,4.4
			C280.6,84.8,279.2,86.4,277.3,86.4L277.3,86.4z M284.7,87.1h0.9v-8.6h0l5.8,8.6h0.9V77h-0.9v8.4h0l-5.6-8.4h-1V87.1L284.7,87.1z
			 M294.9,87.1h0.9l1.1-3.1h4.1l1.1,3.1h1l-3.6-10.2h-1.1L294.9,87.1L294.9,87.1z M297.2,83.1l1.7-5.1h0l1.7,5.1H297.2L297.2,83.1z
			 M305.9,87.1h5.9v-0.9h-5V77h-1V87.1L305.9,87.1z M317.6,87.1h1v-4.6h2.5l2.5,4.6h1.1l-2.6-4.7c1.5-0.3,2.4-1.1,2.4-2.7
			c0-1.8-1.3-2.7-3.5-2.7h-3.4V87.1L317.6,87.1z M318.6,81.7v-3.8h2.4c1.7,0,2.6,0.5,2.6,1.9c0,1.5-0.9,1.9-2.6,1.9H318.6
			L318.6,81.7z M327.7,87.1h6.4v-0.9h-5.4v-4h3.8v-0.9h-3.8v-3.4h5.1V77h-6.1V87.1L327.7,87.1z M335.3,87.1h0.9l1.1-3.1h4.1l1.1,3.1
			h1l-3.6-10.2h-1.1L335.3,87.1L335.3,87.1z M337.6,83.1l1.7-5.1h0l1.7,5.1H337.6L337.6,83.1z M346,87.1h5.9v-0.9h-5V77h-1V87.1
			L346,87.1z M354.6,87.1h1v-9.3h3.3V77h-7.5v0.9h3.3V87.1L354.6,87.1z M363.4,87.1h1v-4.5l3.4-5.7h-1l-2.8,4.8l-2.9-4.8H360
			l3.4,5.7V87.1L363.4,87.1z"/>
	</g>
</g>
<g id="Guides">
</g>
</svg>
