<?xml version="1.0" encoding="utf-8"?>
<!-- Generator: Adobe Illustrator 18.1.1, SVG Export Plug-In . SVG Version: 6.00 Build 0)  -->
<svg version="1.1" id="Layer_1" xmlns="http://www.w3.org/2000/svg" xmlns:xlink="http://www.w3.org/1999/xlink" x="0px" y="0px"
	 viewBox="0 0 199.3 117.9" enable-background="new 0 0 199.3 117.9" xml:space="preserve">
<g>
	<path fill-rule="evenodd" clip-rule="evenodd" d="M81,48.6c0,0.5,0,0.7-0.1,1.2h1.3c3.4-1.5,5.4-2.4,7.9-5.1
		c0.5-0.5,1.1-0.6,1.7-1.1c0.5-0.5,0.8-1.1,1.5-1.2c0.7-0.1,1.2,0.1,1.8-0.1c0.9-0.4,1.2-1,2.1-1.4c0.7-0.3,1.3-0.2,1.8-0.7
		c1.1-0.9,1.8-1.4,3.1-1.8c1.4-0.4,2-1.1,3.3-1.7c0.4-0.2,0.9,0.1,1.3-0.1c0.9-0.5,1.2-1.3,2.1-1.8c1.4-0.7,2.5-0.7,3.5-1.8
		c0.5-0.6,1.3-0.4,2.1-0.7c1.4-0.5,1.9-1.4,3.2-1.8c0.7-0.3,1.4,0.1,2-0.4c1.2-0.8,1.6-2.1,3.1-2.1c0.4,0,0.7,0.3,1.1,0.3
		c0.8,0,0.8-1,1.4-1.4c0.6-0.4,1.2,0,1.8-0.4c0.3-0.2,0.3-0.5,0.7-0.5c0.3,0,0.5,0.3,0.5,0.7c0,0.8,0.3,2.1-0.5,2.1
		c-0.7,0-1-0.4-1.6-0.7c-0.1,0.7,0.8,0.9,1.1,1.6c0.5,1.2,0.7,2,0.7,3.4h0.7c0.8-0.1,1.4-0.3,1.9,0.1c0.5,0.4,0,1.3,0.5,1.7
		c0.8,0.8,1.6,0.7,2.7,1.1c-0.1,0.7-0.2,1.3-0.8,1.6c0.5,0.2,0.9,0.4,1.3,0.7c-0.3,0.4-0.5,0.8-1,0.8c-0.9,0-1.3-0.7-2.2-0.7
		c-1.4,0-2,0.5-3.4,0.5c-1,0-2.7,0.2-2.3,1.1c-0.3,0-0.4,0.1-0.7,0.1c-0.7,0-1.1-0.5-1.8-0.5c-0.9,0-1.2,0.8-2,0.8
		c-0.5,0-0.9-0.3-1.3-0.1c-0.8,0.4-1.2,1.2-2.1,1.2c-0.5,0-0.7-0.5-1.3-0.5c-1.9,0-2.6,1.8-4.5,1.8c-0.5,0-0.9-0.3-1.4-0.3
		c-2.8,0-3.9,2.5-6.7,2.5c-0.6,0-0.9-0.4-1.4-0.4c-0.9,0-1.4,0.5-2.1,0.9c-1,0.4-1.7,0.2-2.7,0.7c-0.8,0.3-1.1,1.2-2,1.2
		c-0.4,0-0.5-0.4-0.9-0.4c-1.4,0-1.7,1.5-3.1,1.5c-0.4,0-0.6-0.3-1-0.3c-1,0-1.4,0.9-2.1,1.6c-0.8,0.7-1.9-0.1-2.9,0.5
		c-1.9,1.3-3.3,1.9-5.5,2.7c-2.6,1.9-4.7,2-7.2,4.2c0.2,0.2,0.3,0.2,0.5,0.3c0.7-0.4,1.2-0.3,1.9-0.5c0.7-0.2,1-0.9,1.7-0.9
		c0.3,0,0.4,0.4,0.6,0.4c1.9,0,2.5-1.7,4.3-2.5c0.8-0.3,1.4,0,2.3-0.1l-0.8-0.8c2-0.4,2.9-1.1,4.8-1.6c0.7-0.2,1.9,0.4,1.9-0.4
		c0-1.1,1.7-0.5,2.9-0.6l-1.1-0.3c0.7-0.1,1-0.5,1.7-0.5c0.6,0,1-0.3,1.5-0.3c0.5,0,0.8-0.3,1.2-0.4c0.6-0.1,1.2,0.3,1.7,0
		c0.5-0.3,0.7-0.9,1.3-0.9c0.5,0,0.8,0,1.3,0.1v-0.5c3-0.3,4.4-2.2,7.3-2.2c0.2,0,0.3,0.3,0.5,0.3c1.3,0,1.7-1.4,3-1.4
		c0.7,0,1,0.1,1.7,0l0.8,0.1c0.3-0.2,0.3-0.7,0.7-0.7c0.3,0,0.5,0.3,0.8,0.3c0.6,0,1-0.5,1.6-0.5c1-0.7,1.9-0.4,3-0.8
		c0.5-0.2,0.5-0.8,1-0.8c2.2,0,3.4,0,5.5,0c0.4,0,0.5-0.5,0.9-0.6c0.8-0.3,1.5,0.2,2.3,0c0.9-0.2,1.5-0.7,2.4-0.7
		c0.9,0,1.5,0.5,2.3,0.1c0.4-0.1,0.5-0.5,0.9-0.5c0.3,0,0.4,0.2,0.7,0.3c-0.2,0.3-0.3,0.5-0.5,0.8c1.1,0.8,2.1,0.9,3.5,0.9l-0.1-0.5
		c-0.7-0.3-1.2-0.4-1.8-0.8h2.1c1.3,0.3,2,0.7,3.4,0.9c1.6,0.3,3-0.3,4.2,0.9c1.3,1.3,1.3,2.7,2.8,3.7c0.2-0.5,0.4-0.8,0.7-1.2
		c0.6,0.2,1,0.5,1.1,1.2c-1,0.4-2,0.9-2,1.9c-1.6,0-1.9,2-3.5,2c-2,0-3.1-0.2-5,0l-0.2-0.5h0.6c1.9-0.4,3.3-0.6,4.8-1.7H144
		c-0.7,0.1-1,0.3-1.6,0.5l-2.3-0.8c-0.7,1.3-2.1,0.5-3.5,0.8c-0.8,0.1-1.2,0.6-2,0.6c-0.4,0-0.3-0.5-0.5-0.8c-1,0.4-1.6,0.3-2.7,0.4
		c-0.7,0-0.9,0.7-1.5,0.9c-0.8,0.3-1.3,0-2.1,0.1c-1.3,0.2-2,0.7-3.3,0.7c-0.7,0-1,0.9-1.7,0.9c-0.6,0-1.3-0.4-1.3-1
		c0-0.3,0.3-0.4,0.3-0.6c0-0.5-0.5-0.9-1-0.9c-1.3,0-1.9,0.8-3.1,0.8c-0.7,0-1,0.7-1.6,0.7c-0.4,0-0.6-0.3-0.9-0.3
		c-0.3,0-0.4,0.5-0.7,0.6c-1.2,0.3-1.7,0.9-3,0.9c-0.4,0-0.6-0.3-0.9-0.3c-0.5,0-0.6,0.7-1.1,0.7c-0.4,0-0.5-0.3-0.9-0.3
		c-0.4,0-0.4,0.6-0.8,0.7c-0.9,0.3-1.8,0.7-2.7,1c-1.5,0.8-2.8,0.7-3.9,1.9l18-4.6c0.4,0,0.6,0.1,1,0.2c-0.6,0.4-1.2,0.3-1.8,0.7
		c-0.6,0.3-0.8,0.9-1.5,0.9c-0.3,0-0.5-0.3-0.8-0.3c-1.3,0-1.8,0.8-2.9,1.4c-1.2,0.7-2.2,0-3.4,0.5c-0.7,0.3-1.2,1-1.9,1.1
		c-0.2,0.2-0.4,0.3-0.5,0.5h2.9c1.8,0.5,3,0.2,4.9,0.5h2.9c1.9,0.3,2.9,0.2,4.8,0.6h3.1c2,0.4,3.1,0.6,5.1,0.9l3.4,0.1
		c-6.8-0.2-10.7-0.8-17.4,0.3c0.8,0.3,1.3,0.5,2.2,0.5c1,0,1.5-0.1,2.5-0.1c0.6,0,1,0.1,1.6,0.1c1.8,0,2.8-0.5,4.7-0.5
		c2,0,3,0.9,5,0.9c3.5,0,5.5,0.1,9,0.5c1.4,0.1,2.2-0.6,3.5-0.1c0.3,0.1,0.2,0.5,0.5,0.7c0.8,0.5,1.4-0.3,2.2-0.1
		c0.6,0.1,0.8,0.6,1.3,0.8c2.1,0.8,3.7-0.3,5.7,0.5c0-0.4,0-0.6,0.1-0.9c1.3,0.3,1.9,0.7,3.2,0.7c0.4,0,0.6-0.3,1-0.3
		c0.2,0,0.6,0.2,0.8,0.2c-0.8,0.8-1.4,1.3-2.5,1.3c-1.5,0-2.3-0.6-3.8-0.6c-1.8,0-2.7,0.9-4.5,0.9c-4.1,0-6.4-1.4-10.5-1.4
		c-0.9,0-1.5,0.2-2.1,0.8l0.4,0.5c1.5,0,3.7-1.5,3.7,0c0,0.6,1,0.3,1.6,0.4h1.7c-2.6,1.7-4.9,0.9-8.1,0.9c-4.3,0-6.7,0.9-10.9,0.9
		c-1.4,0-2.2-0.1-3.7-0.1c-1.6,0-2.6,0.3-4.2,0.3c-1.7,0-2.6-0.7-4.3-0.4h-2.7c-2-0.7-3.3-1.6-5.2-0.9c0.5,0.4,0.8,0.6,1.4,0.7
		c0,0.2,0.2,0.2,0.2,0.4c0,0.2-0.2,0.3-0.2,0.5h-1.4c-0.5-0.3-0.8-0.5-1.4-0.5c-0.8,0-1.3,0.3-2.1,0.3c-1,0-1.5-0.3-2.5-0.3
		c-0.7,0-1,0.8-1.7,0.8c-1.7,0-2.6-1-4.4-1c-0.7,0-1.1,0.4-1.8,0.4c-0.9,0-1.3-0.9-2.2-0.9c-0.7,0-0.5,1.3-1.2,1.3c-1.6,0-2.4-1-4-1
		c-0.9,0-1.5,0.6-1.9,1.4c-0.8-0.5-0.6-1.4-1.2-2c-0.7-0.8-1.3-1.5-2.3-1.5c-0.5,0-0.9,0.3-1.3,0c-0.5-0.3-0.6-0.8-1.1-1.2
		c-0.7,0-1.1,0.1-1.7,0.1c-0.8,0-1.2-0.7-2-0.7c-0.5,0-0.8,0.3-1.3,0.3c-1,0-1-1.7-2-1.7c-0.7,0-0.8,0.6-1.4,0.9
		c-0.7,0.4-1.3,0-2.1,0.3C65.1,60,65,60.6,64.6,61c-1.3,1-2.4,0.8-3.9,1.2c-1.8,0.4-2.7,1.7-4.6,1.7c-0.5,0-1.1-0.3-1.1-0.9
		c0-0.2,0.3-0.3,0.4-0.5l1.4-0.2c3.4-1,5.5-1.3,8.3-3.2c0.8-0.5,1.5-0.1,2.3-0.3c1-0.2,1.4-0.9,2.1-1.7c2.8-1.5,4.6-2.1,7.2-3.7
		c0.6-0.4,1.1-0.6,1.6-1c0.5-0.4,1.4-0.4,1.4-1.1c0-0.4-0.3-0.5-0.4-0.9c-0.7,0.2-1.1,0.5-1.8,0.7c-0.8,0.2-1.5-0.3-2.2,0.3
		c-0.4,0.3-0.2,0.9-0.7,1.2c-0.5,0.3-1.2,0.3-1.2,0.9c0,0.7-1,0.3-1.6,0.5c-1.6,0.8-2.5,1.4-4.3,1.7c-1.4,0.2-1.8,1.4-3,1.9
		c-0.9,0.4-1.7,0.2-2.3,0.9c-0.8,0.9-1.9,0.3-3,0.9c-0.2,0.1-0.1,0.6-0.4,0.7c-0.8,0.3-1.5-0.4-2.2,0c-2.1,1.1-3.3,1.7-5.6,2.3
		l-0.6,0.3c-0.3,0.3-0.4,0.8-0.8,0.8c-0.5,0-0.9-0.2-1.4-0.4c-0.3,0.4-0.9,0.6-1.3,0.4C47,63.7,47,64,46.7,64
		c-0.6,0-0.9-0.5-1.4-0.8c-1.1-0.8-2.2-0.7-3.5-1.2c-0.9,0.3-0.8,1.8-1.8,1.8c-1.2,0-1.8-0.7-2.8-1.2c-0.2,0.3-0.4,0.5-0.6,0.8
		c-0.4-0.2-0.6-0.3-0.9-0.5c-0.2,0.2-0.3,0.3-0.5,0.3v-1.1c3.1,0,4.6-1.4,7.7-1.9c1.6-0.3,2.5-0.8,4.1-1.3c0.8-0.2,1.5,0,2.1-0.5
		c2-1.6,3.8-2.1,6.4-2.5c1.4-0.6,1.9-1.7,3.4-1.7c0.5,0,0.6,0.6,0.8,1.1c0.4-0.5,0.1-1.1,0.4-1.6c0.4-0.6,1.1-0.6,1.8-0.9
		c1.5-0.6,2.4-1.1,3.9-1.7c1.3-0.6,1.7-1.5,2.9-2.2c1-0.6,1.9-0.6,3-1.2c0.9-0.5,1-1.6,2-1.6c0.6,0,0.9-0.5,1.4-0.8
		c1.7-1,2.5-1.9,4.1-3.1c0.3-0.2,0.5-0.5,0.7-0.8c0.9-1.2,2-1.3,3.1-2.1c1.1-0.8,1.4-1.8,2.4-2.7c0.9-0.7,1.9-0.5,2.6-1.4
		c0.9-1.2,0.7-2.6,1.9-3.4c1.2-0.8,2.1-1.2,2.9-2.4c0.4-0.7,0.2-1.5,0.8-2.1c0.8-0.8,1.5-1,2.2-1.8c2.8-3.2,4.1-5.4,6.3-9
		c1.5-2.5,1.6-4.3,3.1-6.9c1.1-1,1.6-1.7,2.7-2.7c0.4,0.6,1.1,0.5,1.7,0.8c1.4,0.7,1.9,2,3.5,2c0.3,0,0.4-0.2,0.7-0.2
		c0.4,0,0.9,0.2,0.9,0.6c0,0.4-0.2,0.6-0.2,1c0,0.7,0.9,0.8,0.9,1.5c0,0.9-0.4,1.4-0.4,2.3c-0.2,0.1-0.3,0.3-0.5,0.4
		c-0.3-1-0.5-1.6-1.1-2.3c-0.2,0.3-0.5,0.4-0.5,0.8c0,0.5,0.5,0.7,0.5,1.2c0,0.9-0.9,1.2-0.9,2c0,1.3,2.3,1.1,2.3,2.4
		c0,0.8-0.9,0.9-1.2,1.6c-0.6,1.6-1.5,2.3-2.6,3.5c-3,3.1-5.5,4.1-8,7.7c-1.1,1.5-2.4,1.6-3.4,3.1c0.3,0,0.5,0.1,0.8,0.1
		c0.5,0,0.6-0.5,0.9-0.8c1-0.8,1.5-1.5,2.4-2.3c1.8-0.8,1.9-2.3,3.6-3.3l2.3-0.1c0-0.3-0.1-0.4-0.1-0.7c0-0.8,0.8-1.1,1.3-1.6
		c1.5-1.5,2.1-2.5,3.5-4.1c1.1-1.2,2.1-1.9,2.1-3.6c0-1.1-0.3-1.7-0.7-2.8v-0.9c1.5,0.4,1.4,1.9,2.6,2.9c0.6,0.5,1.3,0.3,1.7,0.9
		c0.4,0.7,0.3,1.3,0.3,2.1c0.5,0,0.7-0.1,1.2-0.1c0.8,0,1,0.7,1.5,1.3c-0.4,0.5-0.9,0.6-1.3,1.1c-1.3,1.3-1.4,2.7-2.9,3.8
		c-1,0.8-2.1,0.6-3.1,1.4c0.5,0.1,1.1,0.3,1.1,0.8c0,0.7-0.7,1.1-1.3,1.1c-0.4,0-0.5-0.3-0.9-0.3c-0.9,0-1.2,0.6-1.9,1.1
		c-2.4,1.7-4.1,2.3-6.5,4.1c-1.4,1-2.5,1.1-4,1.8c-0.8,0.4-0.9,1.3-1.7,1.7c-1.1,0.6-2.1,0.1-3.2,0.6c-0.6,0.3-0.6,0.9-1.2,1.2
		c-0.8,0.4-1.4,0.3-2.2,0.7c-1.9,1-2.8,1.9-4.6,3.1c-0.5,0.4-0.6,1-1.2,1.3c-0.8,0.5-1.6,0-2.4,0.5c-0.6,0.4-0.7,1-1.3,1.3
		C83.1,48,81.7,47.5,81,48.6L81,48.6z"/>
	<path d="M12.5,74.9c0-3.6,2-2.5,2-3.5c0-0.5-0.2-0.6-0.5-0.6c-0.4,0-1.1,0.2-2.7,0.2c-1.4,0-2.2-0.2-2.8-0.2
		c-0.4,0-0.6,0.1-0.6,0.5c0,0.8,2.4,0.5,2.4,2.7v20.7c0,1.9-0.1,3.1-0.8,3.6c-0.9,0.7-1.2,0.6-1.2,1.1c0,0.3,0.2,0.4,0.4,0.4
		c1.1,0,2.3-0.1,3.4-0.2c2.1-0.1,4.3,0.2,6.4,0.2c1.2,0,1.8,0.1,2.7-1.4c0.7-1.1,1.4-2.5,1.4-4c0-0.1,0-0.5-0.2-0.5
		c-0.4,0-1.3,4.2-7.8,4.2c-2.4,0-2.1-1-2.1-3.4V74.9L12.5,74.9z"/>
	<path d="M25.7,96.1c0,3.4-1.8,2.2-1.8,3.2c0,0.3,0.1,0.5,0.5,0.5c0.3,0,0.8-0.1,2.2-0.1c1,0,2,0.1,2.5,0.1c0.4,0,0.5-0.1,0.5-0.3
		c0-1-2.1-0.2-2.1-2.6V78.6c0-2.6,1.7-1.8,1.7-2.6c0-0.3-0.1-0.3-0.4-0.3c-0.7,0-1.4,0.1-2.2,0.1c-0.9,0-1.7-0.1-2.6-0.1
		c-0.2,0-0.2,0.1-0.2,0.4c0,0.8,1.9,0.1,1.9,2.6V96.1L25.7,96.1z"/>
	<path d="M33.3,95c0,4.8-2.1,3.3-2.1,4.5c0,0.2,0,0.4,0.3,0.4c0.2,0,1.4-0.1,2.2-0.1c1.1,0,1.8,0.1,2.4,0.1c0.2,0,0.3-0.3,0.3-0.4
		c0-0.9-2.1,0.3-2.1-2.8V82.6c0-0.7,0.1-0.8,0.2-0.8c0.2,0,0.4,0.6,0.5,0.6L45,99c0.5,0.8,0.7,1,0.9,1c0.2,0,0.2-0.5,0.2-1.5V78.8
		c0-2.5,1.4-1.9,1.4-2.8c0-0.2-0.1-0.3-0.2-0.3c-0.6,0-1.6,0.1-2.4,0.1c-0.7,0-1.4-0.1-2.1-0.1c-0.1,0-0.3,0.1-0.3,0.3
		c0,1.1,2.6-0.2,2.6,4.3v14.2c0,0.3,0,0.4-0.1,0.4c0,0-0.1-0.1-0.3-0.4L33.6,76.5c-0.1-0.2-0.4-0.8-0.6-0.8c-0.4,0-0.7,0.1-1.1,0.1
		c-0.4,0-0.7-0.1-1.1-0.1c-0.1,0-0.4,0.1-0.4,0.3c0,1.3,2.8-0.7,2.8,6.4V95L33.3,95z"/>
	<path d="M56.4,98.2c0.2,0.7,0.5,2.1,0.9,2.1c0.4,0,0.5-1.1,0.8-2l5.8-20.1c0.7-2.3,1.3-1.4,1.3-2.2c0-0.3-0.1-0.4-0.4-0.4
		c-0.3,0-0.7,0.1-1.8,0.1c-0.5,0-1-0.1-1.5-0.1c-0.2,0-0.4,0.1-0.4,0.4c0,0.8,1.5,0.1,1.5,1.7c0.1,0.7-0.2,1.8-0.3,2.3l-4.1,14.6
		c-0.1,0.4-0.2,1-0.4,1c-0.3,0-0.4-0.8-0.9-2.6l-4.1-14c-0.1-0.3-0.2-0.9-0.2-1.3c0-1.2,1-1.3,1-1.7c0-0.2-0.2-0.3-0.3-0.3
		c-0.3,0-1.2,0.1-1.8,0.1c-0.7,0-1.4-0.1-2.1-0.1c-0.2,0-0.3,0.2-0.3,0.5c0,0.7,1.2,0.1,1.8,2.1L56.4,98.2L56.4,98.2z"/>
	<path d="M68.2,96.1c0,3.4-1.8,2.2-1.8,3.2c0,0.3,0.1,0.5,0.5,0.5c0.3,0,0.8-0.1,2.2-0.1c1,0,2,0.1,2.5,0.1c0.4,0,0.5-0.1,0.5-0.3
		c0-1-2.1-0.2-2.1-2.6V78.6c0-2.6,1.7-1.8,1.7-2.6c0-0.3-0.1-0.3-0.4-0.3c-0.7,0-1.4,0.1-2.2,0.1c-0.9,0-1.7-0.1-2.6-0.1
		c-0.2,0-0.2,0.1-0.2,0.4c0,0.8,1.9,0.1,1.9,2.6V96.1L68.2,96.1z"/>
	<path d="M77.3,79.1c0-3,1.7-2.1,1.7-2.9c0-0.4-0.1-0.5-0.4-0.5c-0.4,0-0.9,0.1-2.2,0.1c-1.1,0-1.9-0.1-2.4-0.1
		c-0.3,0-0.5,0.1-0.5,0.4c0,0.7,2,0.4,2,2.2v17.3c0,1.6,0,2.6-0.7,3c-0.7,0.5-1,0.5-1,0.9c0,0.3,0.1,0.3,0.4,0.3
		c0.9,0,1.9-0.1,2.8-0.1c1.8-0.1,3.5,0.1,5.3,0.1c1,0,1.5,0.1,2.3-1.2c0.6-0.9,1.2-2.1,1.2-3.3c0-0.1,0-0.4-0.2-0.4
		c-0.3,0-1.1,3.5-6.5,3.5c-2,0-1.8-0.8-1.8-2.8V79.1L77.3,79.1z"/>
	<path d="M90.2,79.1c0-3,1.7-2.1,1.7-2.9c0-0.4-0.1-0.5-0.4-0.5c-0.4,0-0.9,0.1-2.2,0.1c-1.1,0-1.9-0.1-2.4-0.1
		c-0.3,0-0.5,0.1-0.5,0.4c0,0.7,2,0.4,2,2.2v17.3c0,1.6,0,2.6-0.7,3c-0.7,0.5-1,0.5-1,0.9c0,0.3,0.1,0.3,0.4,0.3
		c0.9,0,1.9-0.1,2.8-0.1c1.8-0.1,3.5,0.1,5.3,0.1c1,0,1.5,0.1,2.3-1.2c0.6-0.9,1.2-2.1,1.2-3.3c0-0.1,0-0.4-0.2-0.4
		c-0.3,0-1.1,3.5-6.5,3.5c-2,0-1.8-0.8-1.8-2.8V79.1L90.2,79.1z"/>
	<path d="M103.1,79.3c0-2.3,0-2.1,2.2-2.1c0.9,0,3.4-0.2,4,1c0.4,0.8,0,2.4,0.6,2.4c0.1,0,0.5-0.3,0.5-4.1c0-0.4,0-0.7-0.2-0.7
		c-0.7,0-2.9,0.1-3.3,0.1c-1,0-2.2-0.1-6.6-0.1c-0.7,0-0.8,0.1-0.8,0.4c0,0.4,0.5,0.5,0.7,0.5c1.3,0.3,1.3,1.9,1.3,3.4v15.5
		c0,1.6,0,2.6-0.7,3c-0.7,0.5-1,0.5-1,0.9c0,0.3,0.1,0.3,0.4,0.3c0.9,0,1.9-0.1,2.8-0.1c1.8-0.1,3.5,0.1,5.3,0.1
		c1,0,1.5,0.1,2.3-1.2c0.6-0.9,1.2-2.1,1.2-3.3c0-0.1,0-0.4-0.2-0.4c-0.3,0-1.1,3.5-6.5,3.5c-2,0-1.8-0.8-1.8-2.8v-6.3
		c0-0.5-0.1-1.1,0.4-1.1h3.5c2,0,1.2,3,1.9,3c0.2,0,0.3-0.1,0.3-0.4c0-0.9,0-1.8,0-2.7c0-1.1,0-2.2,0-3.4c0-0.3-0.1-0.6-0.3-0.6
		c-0.6,0,0.1,2.7-2.4,2.7H104c-0.9,0-0.9,0-0.9-1.2V79.3L103.1,79.3z"/>
	<path fill-rule="evenodd" clip-rule="evenodd" d="M129.2,85c2-1.1,3.5-3.9,3.5-7.1c0-7.9-6.2-7.1-6.6-7.1c-1.5,0-3.1,0.2-4.7,0.2
		c-1.4,0-1.3-0.2-1.8-0.2c-0.3,0-0.6,0.2-0.6,0.5c0,1.4,2.4-0.3,2.4,3.6v20.8c0,3.1-2,2.5-2,3.6c0,0.2,0.1,0.5,0.3,0.5
		c1.1,0,2.1-0.2,3.2-0.2c2.3,0,3,0.2,3.2,0.2c0.2,0,0.5,0.1,0.5-0.3c0-1.4-2.9-0.1-2.9-3.6v-8.6c0-0.4-0.2-1.1,0.7-1.1
		c3.1,0,2.7-0.1,3.7,2.2l3.1,7.2c1.1,2.3,2.2,4.4,4.2,4.4c0.3,0,1.8,0,1.8-0.5c0-1-1.4,0.5-3.4-4L129.2,85L129.2,85z M123.7,73.8
		c0-1.6,0.6-1.5,1.6-1.5c2.7,0,5.4,1.7,5.4,6.7c0,5.1-2.7,5.8-3.9,5.8c-1.3,0-3.1,0.2-3.1-0.6V73.8L123.7,73.8z"/>
	<path d="M140.1,96.1c0,3.4-1.8,2.2-1.8,3.2c0,0.3,0.1,0.5,0.5,0.5c0.3,0,0.8-0.1,2.2-0.1c1,0,2,0.1,2.5,0.1c0.4,0,0.5-0.1,0.5-0.3
		c0-1-2.1-0.2-2.1-2.6V78.6c0-2.6,1.7-1.8,1.7-2.6c0-0.3-0.1-0.3-0.4-0.3c-0.7,0-1.4,0.1-2.2,0.1c-0.9,0-1.7-0.1-2.6-0.1
		c-0.2,0-0.2,0.1-0.2,0.4c0,0.8,1.9,0.1,1.9,2.6V96.1L140.1,96.1z"/>
	<path fill-rule="evenodd" clip-rule="evenodd" d="M149.5,78.7c0-1.6,0.1-2.1,2.3-2.1c4.4,0,7.9,4.3,7.9,11.9
		c0,7.9-3.2,10.5-6.5,10.5c-1.1,0-2.8-0.4-3.6-1.5c-0.2-0.3-0.1-1.9-0.1-2.5V78.7L149.5,78.7z M147.7,96.3c0,3.2-1.7,2.4-1.7,3.2
		c0,0.2,0,0.3,0.2,0.3c0.2,0,2.4-0.1,2.6-0.1c1.2,0,2.4,0.1,3.6,0.1c6.5,0,9-5.4,9-13.2c0-6.3-4.1-10.9-8.2-10.9
		c-2,0-3.5,0.1-5.1,0.1c-0.7,0-1.4-0.1-2.1-0.1c-0.1,0-0.3,0.1-0.3,0.3c0,0.9,1.9-0.2,1.9,3.3V96.3L147.7,96.3z"/>
	<path d="M174.5,87.1c-0.2,0-0.5-0.1-0.5,0.4c0,0.9,2,0.1,2,1.7v5.3c0,2.9-2.7,4.4-4.9,4.4c-4.5,0-6.9-5.8-6.9-11.8
		c0-5.6,2.1-10.8,6.3-10.8c5.5,0,6.6,6.6,7.2,6.6c0.2,0,0.3-0.3,0.3-0.6l-0.2-4.5c0-0.3,0.1-0.8-0.3-0.8c-0.3,0-0.4,0.6-0.6,0.6
		c-0.7,0-1.8-2.3-5.9-2.3c-5,0-8.7,5.1-8.7,12.4c0,7.6,3.2,12.2,8.4,12.2c4.2,0,4.8-2.3,7.2-3.4v-6.9c0-2.3,1.2-1.5,1.2-2.2
		c0-0.4-0.4-0.3-0.6-0.3H174.5L174.5,87.1z"/>
	<path d="M184,79.3c0-2.3,0-2.1,2.2-2.1c0.9,0,3.4-0.2,4,1c0.4,0.8,0,2.4,0.6,2.4c0.1,0,0.5-0.3,0.5-4.1c0-0.4,0-0.7-0.2-0.7
		c-0.7,0-2.9,0.1-3.3,0.1c-1,0-2.2-0.1-6.6-0.1c-0.7,0-0.8,0.1-0.8,0.4c0,0.4,0.5,0.5,0.7,0.5c1.3,0.3,1.3,1.9,1.3,3.4v15.5
		c0,1.6,0,2.6-0.7,3c-0.7,0.5-1,0.5-1,0.9c0,0.3,0.1,0.3,0.3,0.3c0.9,0,1.9-0.1,2.8-0.1c1.8-0.1,3.5,0.1,5.3,0.1
		c1,0,1.5,0.1,2.3-1.2c0.6-0.9,1.2-2.1,1.2-3.3c0-0.1,0-0.4-0.2-0.4c-0.3,0-1.1,3.5-6.5,3.5c-2,0-1.8-0.8-1.8-2.8v-6.3
		c0-0.5-0.1-1.1,0.4-1.1h3.5c2,0,1.2,3,1.9,3c0.2,0,0.3-0.1,0.3-0.4c0-0.9,0-1.8,0-2.7c0-1.1,0-2.2,0-3.4c0-0.3-0.1-0.6-0.3-0.6
		c-0.6,0,0.1,2.7-2.4,2.7h-2.5c-0.9,0-0.9,0-0.9-1.2V79.3L184,79.3z"/>
	<polygon points="14.8,112.7 14.8,105.2 13.5,105.2 13.5,110.7 10.3,105.2 8.8,105.2 8.8,112.7 10.2,112.7 10.2,107.2 13.3,112.7 
		14.8,112.7 	"/>
	<path fill-rule="evenodd" clip-rule="evenodd" d="M31,109c0-2.2-1.7-3.9-3.9-3.9c-2.2,0-3.9,1.7-3.9,3.9c0,2.2,1.8,3.9,3.9,3.9
		C29.2,112.9,31,111.2,31,109L31,109z M29.6,109c0,1.4-1.1,2.6-2.5,2.6c-1.4,0-2.5-1.2-2.5-2.6c0-1.4,1.1-2.5,2.5-2.5
		C28.5,106.4,29.6,107.5,29.6,109L29.6,109z"/>
	<path fill-rule="evenodd" clip-rule="evenodd" d="M44.5,112.7l-2-2.8c0.5-0.1,1-0.3,1.3-0.7c0.4-0.4,0.6-1.1,0.6-1.6
		c0-0.7-0.3-1.4-0.9-1.8c-0.6-0.5-1.2-0.5-1.9-0.5h-2.2v7.5h1.4v-2.9h0l1.9,2.9H44.5L44.5,112.7z M43,107.7c0,0.3-0.1,0.6-0.3,0.8
		c-0.3,0.3-0.7,0.3-1.1,0.3h-0.8v-2.2h0.8c0.4,0,0.7,0,1,0.3C42.9,107,43,107.3,43,107.7L43,107.7z"/>
	<polygon points="56.2,106.6 56.2,105.2 52.1,105.2 52.1,106.6 53.5,106.6 53.5,112.7 54.8,112.7 54.8,106.6 56.2,106.6 	"/>
	<polygon points="69.7,112.7 69.7,105.2 68.3,105.2 68.3,108.2 65.7,108.2 65.7,105.2 64.3,105.2 64.3,112.7 65.7,112.7 65.7,109.6 
		68.3,109.6 68.3,112.7 69.7,112.7 	"/>
	<path d="M95.7,107.3c-0.6-1.4-2.1-2.3-3.6-2.3c-2.1,0-3.8,1.8-3.8,3.9c0,2.1,1.7,3.9,3.9,3.9c1.5,0,2.9-0.9,3.5-2.2H94
		c-0.5,0.5-1.2,0.9-1.9,0.9c-1.3,0-2.5-1.2-2.5-2.5c0-1.4,1.1-2.6,2.5-2.6c0.7,0,1.5,0.4,2,0.9H95.7L95.7,107.3z"/>
	<path fill-rule="evenodd" clip-rule="evenodd" d="M110.6,112.7l-3.2-7.5h-1.1l-3.1,7.5h1.5l0.8-1.9h2.7l0.8,1.9H110.6L110.6,112.7z
		 M107.7,109.4h-1.6l0.8-2.3L107.7,109.4L107.7,109.4z"/>
	<path fill-rule="evenodd" clip-rule="evenodd" d="M123.8,112.7l-2-2.8c0.5-0.1,1-0.3,1.3-0.7c0.4-0.4,0.6-1.1,0.6-1.6
		c0-0.7-0.3-1.4-0.9-1.8c-0.6-0.5-1.2-0.5-1.9-0.5h-2.2v7.5h1.4v-2.9h0l1.9,2.9H123.8L123.8,112.7z M122.3,107.7
		c0,0.3-0.1,0.6-0.3,0.8c-0.3,0.3-0.7,0.3-1.1,0.3h-0.8v-2.2h0.8c0.4,0,0.7,0,1,0.3C122.2,107,122.3,107.3,122.3,107.7L122.3,107.7z
		"/>
	<path fill-rule="evenodd" clip-rule="evenodd" d="M139.3,109c0-2.2-1.7-3.9-3.9-3.9c-2.2,0-3.9,1.7-3.9,3.9c0,2.2,1.8,3.9,3.9,3.9
		C137.6,112.9,139.3,111.2,139.3,109L139.3,109z M138,109c0,1.4-1.1,2.6-2.5,2.6c-1.4,0-2.5-1.2-2.5-2.6c0-1.4,1.1-2.5,2.5-2.5
		C136.8,106.4,138,107.5,138,109L138,109z"/>
	<polygon points="151.4,112.7 151.4,111.4 149.1,111.4 149.1,105.2 147.8,105.2 147.8,112.7 151.4,112.7 	"/>
	<polygon points="160.9,112.7 160.9,105.2 159.5,105.2 159.5,112.7 160.9,112.7 	"/>
	<polygon points="175.8,112.7 175.8,105.2 174.4,105.2 174.4,110.7 171.2,105.2 169.7,105.2 169.7,112.7 171.1,112.7 171.1,107.2 
		174.2,112.7 175.8,112.7 	"/>
	<path fill-rule="evenodd" clip-rule="evenodd" d="M191.2,112.7l-3.2-7.5H187l-3.1,7.5h1.5l0.8-1.9h2.7l0.8,1.9H191.2L191.2,112.7z
		 M188.4,109.4h-1.6l0.8-2.3L188.4,109.4L188.4,109.4z"/>
</g>
</svg>
